<svg xmlns="http://www.w3.org/2000/svg" viewBox="0 0 760 420" role="img" aria-label="Periodic table showing the s, p, d, and f blocks">
  <style>.cell{stroke-width:.8}.sym{font-size:9px;font-weight:600}.sm{font-size:8px}</style>
  <!-- group numbers -->
  <g class="small">
    <text x="30" y="16" text-anchor="middle">1</text><text x="70" y="52" text-anchor="middle">2</text>
    <text x="150" y="124" text-anchor="middle">3</text><text x="190" y="124" text-anchor="middle">4</text><text x="230" y="124" text-anchor="middle">5</text><text x="270" y="124" text-anchor="middle">6</text><text x="310" y="124" text-anchor="middle">7</text><text x="350" y="124" text-anchor="middle">8</text><text x="390" y="124" text-anchor="middle">9</text><text x="430" y="124" text-anchor="middle">10</text><text x="470" y="124" text-anchor="middle">11</text><text x="510" y="124" text-anchor="middle">12</text>
    <text x="550" y="52" text-anchor="middle">13</text><text x="590" y="52" text-anchor="middle">14</text><text x="630" y="52" text-anchor="middle">15</text><text x="670" y="52" text-anchor="middle">16</text><text x="710" y="52" text-anchor="middle">17</text><text x="750" y="16" text-anchor="middle">18</text>
  </g>
  <!-- s block: groups 1-2, periods 1-7 -->
  <g class="soft-fill accent">
    <rect x="12" y="20" width="36" height="34" class="cell"/>
    <rect x="12" y="56" width="36" height="34" class="cell"/><rect x="52" y="56" width="36" height="34" class="cell"/>
    <rect x="12" y="92" width="36" height="34" class="cell"/><rect x="52" y="92" width="36" height="34" class="cell"/>
    <rect x="12" y="128" width="36" height="34" class="cell"/><rect x="52" y="128" width="36" height="34" class="cell"/>
    <rect x="12" y="164" width="36" height="34" class="cell"/><rect x="52" y="164" width="36" height="34" class="cell"/>
    <rect x="12" y="200" width="36" height="34" class="cell"/><rect x="52" y="200" width="36" height="34" class="cell"/>
    <rect x="12" y="236" width="36" height="34" class="cell"/><rect x="52" y="236" width="36" height="34" class="cell"/>
    <rect x="732" y="20" width="36" height="34" class="cell"/>
  </g>
  <!-- p block: groups 13-18, periods 2-7 -->
  <g class="amber-soft-fill amber">
    <rect x="532" y="56" width="236" height="34" class="cell"/>
    <rect x="532" y="92" width="236" height="34" class="cell"/>
    <rect x="532" y="128" width="236" height="34" class="cell"/>
    <rect x="532" y="164" width="236" height="34" class="cell"/>
    <rect x="532" y="200" width="236" height="34" class="cell"/>
    <rect x="532" y="236" width="236" height="34" class="cell"/>
  </g>
  <!-- d block: groups 3-12, periods 4-7 -->
  <g class="slate-fill line">
    <rect x="132" y="128" width="396" height="34" class="cell" fill="none"/>
    <rect x="132" y="164" width="396" height="34" class="cell" fill="none"/>
    <rect x="132" y="200" width="396" height="34" class="cell" fill="none"/>
    <rect x="132" y="236" width="396" height="34" class="cell" fill="none"/>
  </g>
  <!-- f block -->
  <g class="line">
    <rect x="132" y="300" width="556" height="34" class="cell" fill="none" stroke-dasharray="4 3"/>
    <rect x="132" y="336" width="556" height="34" class="cell" fill="none" stroke-dasharray="4 3"/>
  </g>
  <!-- grid lines within blocks (vertical) -->
  <g class="line" stroke-width=".6" opacity=".7">
    <path d="M172 128V270M212 128V270M252 128V270M292 128V270M332 128V270M372 128V270M412 128V270M452 128V270M492 128V270"/>
    <path d="M572 56V270M612 56V270M652 56V270M692 56V270M732 56V270"/>
    <path d="M172 300V370M212 300V370M252 300V370M292 300V370M332 300V370M372 300V370M412 300V370M452 300V370M492 300V370M532 300V370M572 300V370M612 300V370M652 300V370"/>
    <path d="M132 162H528M132 198H528M132 234H528M532 90H768M532 126H768M532 162H768M532 198H768M532 234H768M132 334H688"/>
  </g>
  <!-- element symbols (selected) -->
  <g text-anchor="middle" class="sym">
    <text x="30" y="40">H</text><text x="750" y="40">He</text>
    <text x="30" y="76">Li</text><text x="70" y="76">Be</text><text x="550" y="76">B</text><text x="590" y="76">C</text><text x="630" y="76">N</text><text x="670" y="76">O</text><text x="710" y="76">F</text><text x="750" y="76">Ne</text>
    <text x="30" y="112">Na</text><text x="70" y="112">Mg</text><text x="550" y="112">Al</text><text x="590" y="112">Si</text><text x="630" y="112">P</text><text x="670" y="112">S</text><text x="710" y="112">Cl</text><text x="750" y="112">Ar</text>
    <text x="30" y="148">K</text><text x="70" y="148">Ca</text><text x="150" y="148">Sc</text><text x="190" y="148">Ti</text><text x="230" y="148">V</text><text x="270" y="148">Cr</text><text x="310" y="148">Mn</text><text x="350" y="148">Fe</text><text x="390" y="148">Co</text><text x="430" y="148">Ni</text><text x="470" y="148">Cu</text><text x="510" y="148">Zn</text><text x="550" y="148">Ga</text><text x="590" y="148">Ge</text><text x="630" y="148">As</text><text x="670" y="148">Se</text><text x="710" y="148">Br</text><text x="750" y="148">Kr</text>
    <text x="30" y="184">Rb</text><text x="70" y="184">Sr</text><text x="150" y="184">Y</text><text x="190" y="184">Zr</text><text x="230" y="184">Nb</text><text x="270" y="184">Mo</text><text x="310" y="184">Tc</text><text x="350" y="184">Ru</text><text x="390" y="184">Rh</text><text x="430" y="184">Pd</text><text x="470" y="184">Ag</text><text x="510" y="184">Cd</text><text x="550" y="184">In</text><text x="590" y="184">Sn</text><text x="630" y="184">Sb</text><text x="670" y="184">Te</text><text x="710" y="184">I</text><text x="750" y="184">Xe</text>
    <text x="30" y="220">Cs</text><text x="70" y="220">Ba</text><text x="150" y="220">Lu</text><text x="190" y="220">Hf</text><text x="230" y="220">Ta</text><text x="270" y="220">W</text><text x="310" y="220">Re</text><text x="350" y="220">Os</text><text x="390" y="220">Ir</text><text x="430" y="220">Pt</text><text x="470" y="220">Au</text><text x="510" y="220">Hg</text><text x="550" y="220">Tl</text><text x="590" y="220">Pb</text><text x="630" y="220">Bi</text><text x="670" y="220">Po</text><text x="710" y="220">At</text><text x="750" y="220">Rn</text>
    <text x="30" y="256">Fr</text><text x="70" y="256">Ra</text><text x="150" y="256">Lr</text><text x="190" y="256">Rf</text><text x="230" y="256">Db</text><text x="270" y="256">Sg</text><text x="310" y="256">Bh</text><text x="350" y="256">Hs</text><text x="390" y="256">Mt</text><text x="430" y="256">Ds</text><text x="470" y="256">Rg</text><text x="510" y="256">Cn</text><text x="550" y="256">Nh</text><text x="590" y="256">Fl</text><text x="630" y="256">Mc</text><text x="670" y="256">Lv</text><text x="710" y="256">Ts</text><text x="750" y="256">Og</text>
    <text x="150" y="320">La</text><text x="190" y="320">Ce</text><text x="230" y="320">Pr</text><text x="270" y="320">Nd</text><text x="310" y="320">Pm</text><text x="350" y="320">Sm</text><text x="390" y="320">Eu</text><text x="430" y="320">Gd</text><text x="470" y="320">Tb</text><text x="510" y="320">Dy</text><text x="550" y="320">Ho</text><text x="590" y="320">Er</text><text x="630" y="320">Tm</text><text x="670" y="320">Yb</text>
    <text x="150" y="356">Ac</text><text x="190" y="356">Th</text><text x="230" y="356">Pa</text><text x="270" y="356">U</text><text x="310" y="356">Np</text><text x="350" y="356">Pu</text><text x="390" y="356">Am</text><text x="430" y="356">Cm</text><text x="470" y="356">Bk</text><text x="510" y="356">Cf</text><text x="550" y="356">Es</text><text x="590" y="356">Fm</text><text x="630" y="356">Md</text><text x="670" y="356">No</text>
  </g>
  <!-- block labels -->
  <text x="50" y="290" text-anchor="middle" class="small" style="font-weight:600">s block · 2 wide</text>
  <text x="330" y="290" text-anchor="middle" class="small" style="font-weight:600">d block · 10 wide (transition metals)</text>
  <text x="650" y="290" text-anchor="middle" class="small" style="font-weight:600">p block · 6 wide</text>
  <text x="410" y="392" text-anchor="middle" class="small" style="font-weight:600">f block · 14 wide (lanthanides and actinides; belong between groups 2 and 3)</text>
  <text x="30" y="410" class="small">Rows are periods (shells filling); columns are groups (same outer-electron arrangement).</text>
  <text x="440" y="410" class="small">Group 1: alkali metals · 17: halogens · 18: noble gases.</text>
</svg>
